# xmcd CD database file
#
# Track frame offsets:
#	150
#	19747
#	32422
#
# Disc length: 642 seconds
#
# Revision: 16
# Processed by: cddbd v1.5PL3 Copyright (c) Steve Scherf et al.
# Submitted via: CDex 1.50
#
DISCID=16028003
DTITLE=EGO-WRAPPIN' - くちばしにチェリー
DYEAR=2002
DGENRE=JPop
TTITLE0=くちばしにチェリー
TTITLE1=クイック・マダム
TTITLE2=SUGAR
EXTD=YEAR: 2002
EXTT0=
EXTT1=
EXTT2=
PLAYORDER=
